<svg viewBox="0 0 50 50" xmlns="http://www.w3.org/2000/svg" id="Clean-Car-Cable-Charge--Streamline-Ultimate.svg" height="50" width="50"><desc>Clean Car Cable Charge Streamline Icon: https://streamlinehq.com</desc><path d="M46.875 39.0625v-6.518750000000001a3.125 3.125 0 0 0 -0.9145833333333334 -2.2083333333333335L42.1875 26.562500000000004H7.812500000000001l-3.7729166666666667 3.7729166666666667a3.125 3.125 0 0 0 -0.9145833333333334 2.2083333333333335v6.518750000000001a3.125 3.125 0 0 0 3.125 3.125h37.5a3.125 3.125 0 0 0 3.125 -3.125Z" fill="none" stroke="#000000" stroke-linecap="round" stroke-linejoin="round" stroke-width="1.5"></path><path d="M36.81041666666667 14.062500000000002a3.125 3.125 0 0 1 2.9645833333333336 2.1375l2.4125 10.3625H7.812500000000001l2.4125 -10.3625A3.125 3.125 0 0 1 13.189583333333335 14.062500000000002" fill="none" stroke="#000000" stroke-linecap="round" stroke-linejoin="round" stroke-width="1.5"></path><path d="m9.375 32.8125 3.125 0" fill="none" stroke="#000000" stroke-linecap="round" stroke-linejoin="round" stroke-width="1.5"></path><path d="m37.5 32.8125 3.125 0" fill="none" stroke="#000000" stroke-linecap="round" stroke-linejoin="round" stroke-width="1.5"></path><path d="M12.5 45.3125a3.125 3.125 0 0 1 -6.25 0v-3.125h6.25Z" fill="none" stroke="#000000" stroke-linecap="round" stroke-linejoin="round" stroke-width="1.5"></path><path d="M43.75 45.3125a3.125 3.125 0 0 1 -6.25 0v-3.125h6.25Z" fill="none" stroke="#000000" stroke-linecap="round" stroke-linejoin="round" stroke-width="1.5"></path><path d="M31.250000000000004 7.812500000000001a6.25 6.25 0 0 1 -12.5 0Z" fill="none" stroke="#000000" stroke-linecap="round" stroke-linejoin="round" stroke-width="1.5"></path><path d="m21.875 7.812500000000001 0 -6.25" fill="none" stroke="#000000" stroke-linecap="round" stroke-linejoin="round" stroke-width="1.5"></path><path d="m28.125000000000004 7.812500000000001 0 -6.25" fill="none" stroke="#000000" stroke-linecap="round" stroke-linejoin="round" stroke-width="1.5"></path><path d="m25 20.3125 0 -6.25" fill="none" stroke="#000000" stroke-linecap="round" stroke-linejoin="round" stroke-width="1.5"></path></svg>