<svg xmlns="http://www.w3.org/2000/svg" fill="none" viewBox="0 0 50 50" id="Cruise-Control--Streamline-Ultimate.svg" height="50" width="50"><desc>Cruise Control Streamline Icon: https://streamlinehq.com</desc><path stroke="#000000" stroke-linecap="round" stroke-linejoin="round" stroke-miterlimit="10" d="M1.5625 43.85416666666667C1.5625 30.9375 12.025625000000002 20.520791666666668 25 20.520791666666668S48.4375 30.9375 48.4375 43.85416666666667" stroke-width="1.5"></path><path stroke="#000000" stroke-linecap="round" stroke-linejoin="round" stroke-miterlimit="10" d="M25 47.60416666666667c1.7258333333333336 0 3.125 -1.3991666666666667 3.125 -3.125 0 -1.726041666666667 -1.3991666666666667 -3.125 -3.125 -3.125s-3.125 1.3989583333333333 -3.125 3.125c0 1.7258333333333336 1.3991666666666667 3.125 3.125 3.125Z" stroke-width="1.5"></path><path stroke="#000000" stroke-linecap="round" stroke-linejoin="round" stroke-miterlimit="10" d="m19.062541666666668 28.22916666666667 4.791625000000001 13.333333333333336" stroke-width="1.5"></path><path stroke="#000000" stroke-linecap="round" stroke-linejoin="round" stroke-miterlimit="10" d="m30.9375 28.22916666666667 -1.0416666666666667 2.9166666666666665" stroke-width="1.5"></path><path stroke="#000000" stroke-linecap="round" stroke-linejoin="round" stroke-miterlimit="10" d="m40 35.9375 -3.125 1.8750000000000002" stroke-width="1.5"></path><path stroke="#000000" stroke-linecap="round" stroke-linejoin="round" stroke-miterlimit="10" d="m9.999979166666668 35.9375 3.125 1.8750000000000002" stroke-width="1.5"></path><path stroke="#000000" stroke-linecap="round" stroke-linejoin="round" stroke-miterlimit="10" d="m42.083333333333336 47.395833333333336 -3.125 -0.41666666666666674" stroke-width="1.5"></path><path stroke="#000000" stroke-linecap="round" stroke-linejoin="round" stroke-miterlimit="10" d="m7.916645833333335 47.395833333333336 3.125 -0.41666666666666674" stroke-width="1.5"></path><path stroke="#000000" stroke-linecap="round" stroke-linejoin="round" stroke-miterlimit="10" d="m9.999979166666668 2.395875 4.67675 11.814979166666667" stroke-width="1.5"></path><path stroke="#000000" stroke-linecap="round" stroke-linejoin="round" stroke-miterlimit="10" d="m8.333333333333334 12.395875000000002 6.25 2.0833333333333335 3.3333541666666666 -5.833333333333333" stroke-width="1.5"></path></svg>