<svg xmlns="http://www.w3.org/2000/svg" viewBox="-0.75 -0.75 50 50" id="Navigation-Car-Pin-1--Streamline-Ultimate.svg" height="50" width="50"><desc>Navigation Car Pin 1 Streamline Icon: https://streamlinehq.com</desc><g><g><path d="M35.364583333333336 10.104166666666668a3.03125 3.03125 0 1 0 6.0625 0 3.03125 3.03125 0 1 0 -6.0625 0" fill="none" stroke="#000000" stroke-linecap="round" stroke-linejoin="round" stroke-width="1.5"></path><path d="M47.489583333333336 10.104166666666668c0 6.0625 -9.09375 15.156250000000002 -9.09375 15.156250000000002S29.302083333333336 16.166666666666668 29.302083333333336 10.104166666666668a9.09375 9.09375 0 0 1 18.1875 0Z" fill="none" stroke="#000000" stroke-linecap="round" stroke-linejoin="round" stroke-width="1.5"></path></g><g><g><path d="M14.145833333333334 43.44791666666667a4.041666666666667 4.041666666666667 0 1 0 8.083333333333334 0 4.041666666666667 4.041666666666667 0 1 0 -8.083333333333334 0" fill="none" stroke="#000000" stroke-linecap="round" stroke-linejoin="round" stroke-width="1.5"></path><path d="m14.145833333333334 43.44791666666667 -13.135416666666668 0" fill="none" stroke="#000000" stroke-linecap="round" stroke-linejoin="round" stroke-width="1.5"></path><path d="m39.40625 43.44791666666667 -17.177083333333336 0" fill="none" stroke="#000000" stroke-linecap="round" stroke-linejoin="round" stroke-width="1.5"></path><path d="M37.38541666666667 43.44791666666667v-6.0625a6.0625 6.0625 0 0 0 -6.0625 -6.0625H26.270833333333336l-7.517500000000001 -8.992708333333335a2.0208333333333335 2.0208333333333335 0 0 0 -1.81875 -1.1114583333333334H1.0104166666666667" fill="none" stroke="#000000" stroke-linecap="round" stroke-linejoin="round" stroke-width="1.5"></path></g><path d="M15.075416666666667 21.21875c-0.2222916666666667 -0.5052083333333334 -1.0104166666666667 -2.3845833333333335 -1.4145833333333333 -3.4152083333333336a1.0104166666666667 1.0104166666666667 0 0 0 -0.9497916666666667 -0.6264583333333333H5.052083333333334a1.7177083333333334 1.7177083333333334 0 0 0 -1.4347916666666667 1.0104166666666667l-1.4347916666666667 3.03125" fill="none" stroke="#000000" stroke-linecap="round" stroke-linejoin="round" stroke-width="1.5"></path></g><path d="m26.270833333333336 31.322916666666668 -25.260416666666668 0" fill="none" stroke="#000000" stroke-linecap="round" stroke-linejoin="round" stroke-width="1.5"></path><path d="m7.072916666666667 21.21875 0 10.104166666666668" fill="none" stroke="#000000" stroke-linecap="round" stroke-linejoin="round" stroke-width="1.5"></path><path d="M37.041875 35.364583333333336H30.312500000000004a4.041666666666667 4.041666666666667 0 0 0 4.041666666666667 4.041666666666667h3.03125" fill="none" stroke="#000000" stroke-linecap="round" stroke-linejoin="round" stroke-width="1.5"></path></g></svg>