<svg xmlns="http://www.w3.org/2000/svg" fill="none" viewBox="0 0 50 50" id="Car-Sensor-3--Streamline-Ultimate.svg" height="50" width="50"><desc>Car Sensor 3 Streamline Icon: https://streamlinehq.com</desc><path stroke="#000000" stroke-linecap="round" stroke-linejoin="round" stroke-miterlimit="10" d="M16.765687500000002 38.41166666666667c-1.25 0 -2.0833333333333335 -0.8333333333333335 -2.0833333333333335 -2.0833333333333335v-2.0833333333333335c0 -0.41666666666666674 0.20833333333333337 -1.0416666666666667 0.625 -1.4583333333333333l1.666666666666667 -1.4583333333333333h16.04160416666667l1.666666666666667 1.4583333333333333c0.41666666666666674 0.41666666666666674 0.625 1.0416666666666667 0.625 1.4583333333333333v2.0833333333333335c0 1.25 -0.8333333333333335 2.0833333333333335 -2.0833333333333335 2.0833333333333335H16.765687500000002Z" stroke-width="1.5"></path><path stroke="#000000" stroke-linecap="round" stroke-linejoin="round" stroke-miterlimit="10" d="m17.072979166666666 31.328125 0.6249791666666666 -5.833333333333333c0.20833333333333337 -1.0416666666666667 1.0416666666666667 -1.8750000000000002 2.0833333333333335 -1.8750000000000002H30.197916666666668c1.0416666666666667 0 1.8750000000000002 0.8333333333333335 2.0833333333333335 1.8750000000000002l0.625 5.833333333333333" stroke-width="1.5"></path><path stroke="#000000" stroke-linecap="round" stroke-linejoin="round" stroke-miterlimit="10" d="M31.24479166666667 38.41166666666667v3.125" stroke-width="1.5"></path><path stroke="#000000" stroke-linecap="round" stroke-linejoin="round" stroke-miterlimit="10" d="M18.744791666666668 38.41166666666667v3.125" stroke-width="1.5"></path><path stroke="#000000" stroke-linecap="round" stroke-linejoin="round" stroke-miterlimit="10" d="M4.218791666666667 41.95333333333333c-3.541658333333334 -4.166666666666667 -3.541658333333334 -10.416666666666668 0 -14.583333333333334" stroke-width="1.5"></path><path stroke="#000000" stroke-linecap="round" stroke-linejoin="round" stroke-miterlimit="10" d="M9.898625000000001 30.495000000000005c-2.0833333333333335 2.5 -2.0833333333333335 6.041666666666667 0 8.541666666666666" stroke-width="1.5"></path><path stroke="#000000" stroke-linecap="round" stroke-linejoin="round" stroke-miterlimit="10" d="M45.770833333333336 41.95333333333333c3.541666666666667 -4.166666666666667 3.541666666666667 -10.416666666666668 0 -14.583333333333334" stroke-width="1.5"></path><path stroke="#000000" stroke-linecap="round" stroke-linejoin="round" stroke-miterlimit="10" d="M40.09375000000001 30.495000000000005c2.0833333333333335 2.5 2.0833333333333335 6.041666666666667 0 8.541666666666666" stroke-width="1.5"></path><path stroke="#000000" stroke-linecap="round" stroke-linejoin="round" stroke-miterlimit="10" d="M17.703125000000004 10.703229166666668c4.166666666666667 -3.541666666666667 10.416666666666668 -3.541666666666667 14.583333333333334 0" stroke-width="1.5"></path><path stroke="#000000" stroke-linecap="round" stroke-linejoin="round" stroke-miterlimit="10" d="M29.265625 15.911604166666669c-2.5 -2.0833333333333335 -6.041458333333334 -2.0833333333333335 -8.541541666666667 0" stroke-width="1.5"></path></svg>