<svg xmlns="http://www.w3.org/2000/svg" viewBox="0 0 48 48" id="Calendar-1--Streamline-Ultimate.svg" height="48" width="48"><desc>Calendar 1 Streamline Icon: https://streamlinehq.com</desc><defs></defs><title>calendar-1</title><path d="M3.5478 5.593H44.4522S46.4974 5.593 46.4974 7.6382V44.4522S46.4974 46.4974 44.4522 46.4974H3.5478S1.5026 46.4974 1.5026 44.4522V7.6382S1.5026 5.593 3.5478 5.593" fill="none" stroke="#000000" stroke-linecap="round" stroke-linejoin="round" stroke-width="1"></path><path d="M7.6382 1.5026V7.6382" fill="none" stroke="#000000" stroke-linecap="round" stroke-linejoin="round" stroke-width="1"></path><path d="M15.8192 1.5026V7.6382" fill="none" stroke="#000000" stroke-linecap="round" stroke-linejoin="round" stroke-width="1"></path><path d="M24 1.5026V7.6382" fill="none" stroke="#000000" stroke-linecap="round" stroke-linejoin="round" stroke-width="1"></path><path d="M32.1808 1.5026V7.6382" fill="none" stroke="#000000" stroke-linecap="round" stroke-linejoin="round" stroke-width="1"></path><path d="M40.3618 1.5026V7.6382" fill="none" stroke="#000000" stroke-linecap="round" stroke-linejoin="round" stroke-width="1"></path><path d="M26.0452 15.817H32.1808H32.1808V23.998H32.1808H24H24V17.8622C24 16.7328 24.9156 15.817 26.0452 15.817Z" fill="none" stroke="#000000" stroke-linecap="round" stroke-linejoin="round" stroke-width="1"></path><path d="M32.1808 15.817H38.3166C39.446 15.817 40.3618 16.7328 40.3618 17.8622V23.998H40.3618H32.1808H32.1808V15.817H32.1808Z" fill="none" stroke="#000000" stroke-linecap="round" stroke-linejoin="round" stroke-width="1"></path><path d="M24 24H32.1808V32.1808H24Z" fill="none" stroke="#000000" stroke-linecap="round" stroke-linejoin="round" stroke-width="1"></path><path d="M32.1808 24H40.3618V32.1808H32.1808Z" fill="none" stroke="#000000" stroke-linecap="round" stroke-linejoin="round" stroke-width="1"></path><path d="M24 32.1808H32.1808V40.3618H24Z" fill="none" stroke="#000000" stroke-linecap="round" stroke-linejoin="round" stroke-width="1"></path><path d="M32.1808 32.1788H40.3618H40.3618V38.3144C40.3618 39.444 39.446 40.3596 38.3166 40.3596H32.1808H32.1808V32.1788H32.1808Z" fill="none" stroke="#000000" stroke-linecap="round" stroke-linejoin="round" stroke-width="1"></path><path d="M9.6834 23.998H15.8192H15.8192V32.1788H15.8192H7.6382H7.6382V26.0432C7.6382 24.9136 8.554 23.998 9.6836 23.998Z" fill="none" stroke="#000000" stroke-linecap="round" stroke-linejoin="round" stroke-width="1"></path><path d="M15.8192 24H24V32.1808H15.8192Z" fill="none" stroke="#000000" stroke-linecap="round" stroke-linejoin="round" stroke-width="1"></path><path d="M7.6382 32.1788H15.8192H15.8192V40.3596H15.8192H9.6834C8.554 40.3596 7.6382 39.444 7.6382 38.3144V32.1788H7.6382Z" fill="none" stroke="#000000" stroke-linecap="round" stroke-linejoin="round" stroke-width="1"></path><path d="M15.8192 32.1808H24V40.3618H15.8192Z" fill="none" stroke="#000000" stroke-linecap="round" stroke-linejoin="round" stroke-width="1"></path></svg>