<svg viewBox="0 0 50 50" xmlns="http://www.w3.org/2000/svg" id="Car-2--Streamline-Ultimate.svg" height="50" width="50"><desc>Car 2 Streamline Icon: https://streamlinehq.com</desc><path d="M45.3125 38.01875a3.125 3.125 0 0 0 3.125 -3.125V27.083333333333336a3.7729166666666667 3.7729166666666667 0 0 0 -1.1041666666666667 -2.6645833333333333L42.1875 19.270833333333336H7.812500000000001l-5.145833333333334 5.145833333333334A3.7729166666666667 3.7729166666666667 0 0 0 1.5625 27.083333333333336v7.812500000000001a3.125 3.125 0 0 0 3.125 3.125Z" fill="none" stroke="#000000" stroke-linecap="round" stroke-linejoin="round" stroke-width="1.5"></path><path d="m7.812500000000001 19.270833333333336 3.5895833333333336 -9.572916666666666A4.5125 4.5125 0 0 1 15.625000000000002 6.770833333333334h18.75a4.5125 4.5125 0 0 1 4.222916666666667 2.9270833333333335l3.5895833333333336 9.583333333333334Z" fill="none" stroke="#000000" stroke-linecap="round" stroke-linejoin="round" stroke-width="1.5"></path><path d="m7.812500000000001 19.270833333333336 -3.125 -3.125 -3.125 0" fill="none" stroke="#000000" stroke-linecap="round" stroke-linejoin="round" stroke-width="1.5"></path><path d="m42.1875 19.270833333333336 3.125 -3.125 3.125 0" fill="none" stroke="#000000" stroke-linecap="round" stroke-linejoin="round" stroke-width="1.5"></path><path d="M4.6875 38.01875v3.125a3.125 3.125 0 0 0 6.25 0v-3.125Z" fill="none" stroke="#000000" stroke-linecap="round" stroke-linejoin="round" stroke-width="1.5"></path><path d="M45.3125 38.01875v3.125a3.125 3.125 0 0 1 -6.25 0v-3.125Z" fill="none" stroke="#000000" stroke-linecap="round" stroke-linejoin="round" stroke-width="1.5"></path><path d="M21.09375 31.768750000000004 18.681250000000002 27.916666666666668a1.5645833333333334 1.5645833333333334 0 0 1 1.31875 -2.3979166666666667h10a1.5645833333333334 1.5645833333333334 0 0 1 1.3250000000000002 2.3916666666666666l-2.4125 3.858333333333334" fill="none" stroke="#000000" stroke-linecap="round" stroke-linejoin="round" stroke-width="1.5"></path><path d="M48.09375000000001 25.518750000000004h-6.502083333333334a1.5645833333333334 1.5645833333333334 0 0 0 -1.397916666666667 2.2625l0.2666666666666667 0.5333333333333334a6.25 6.25 0 0 0 5.58125 3.4541666666666666h2.3958333333333335" fill="none" stroke="#000000" stroke-linecap="round" stroke-linejoin="round" stroke-width="1.5"></path><path d="M1.9062500000000002 25.518750000000004h6.502083333333334a1.5645833333333334 1.5645833333333334 0 0 1 1.397916666666667 2.2625l-0.2666666666666667 0.5333333333333334A6.25 6.25 0 0 1 3.9583333333333335 31.768750000000004H1.5625" fill="none" stroke="#000000" stroke-linecap="round" stroke-linejoin="round" stroke-width="1.5"></path></svg>