<svg viewBox="-0.75 -0.75 50 50" xmlns="http://www.w3.org/2000/svg" id="Gauge-Dashboard--Streamline-Ultimate.svg" height="50" width="50"><desc>Gauge Dashboard Streamline Icon: https://streamlinehq.com</desc><path d="M21.279375 31.181458333333335C21.279375 33.46823333333333 23.754895833333336 34.89756875 25.7353125 33.75418125C26.654387500000002 33.22351041666667 27.220625000000002 32.2428 27.220625000000002 31.181458333333335C27.220625000000002 28.894683333333337 24.745104166666668 27.46534791666667 22.764687500000004 28.60873541666667C21.8456125 29.13940625 21.279375 30.120116666666668 21.279375 31.181458333333335Z" fill="none" stroke="#000000" stroke-linecap="round" stroke-linejoin="round" stroke-width="1.5"></path><path d="M26.349241666666668 29.080195833333335L36.154325 19.279154166666668" fill="none" stroke="#000000" stroke-linecap="round" stroke-linejoin="round" stroke-width="1.5"></path><path d="M5.436041666666667 32.17166666666667H9.396875000000001" fill="none" stroke="#000000" stroke-linecap="round" stroke-linejoin="round" stroke-width="1.5"></path><path d="M43.06395833333333 32.17166666666667H39.103125000000006" fill="none" stroke="#000000" stroke-linecap="round" stroke-linejoin="round" stroke-width="1.5"></path><path d="M41.630177083333336 23.98264375L37.97226666666667 25.4976625" fill="none" stroke="#000000" stroke-linecap="round" stroke-linejoin="round" stroke-width="1.5"></path><path d="M31.448814583333338 13.799260416666668L29.933795833333335 17.45919166666667" fill="none" stroke="#000000" stroke-linecap="round" stroke-linejoin="round" stroke-width="1.5"></path><path d="M24.25 12.367500000000001V16.328333333333333" fill="none" stroke="#000000" stroke-linecap="round" stroke-linejoin="round" stroke-width="1.5"></path><path d="M17.051185416666666 13.799260416666668L18.56620416666667 17.45919166666667" fill="none" stroke="#000000" stroke-linecap="round" stroke-linejoin="round" stroke-width="1.5"></path><path d="M10.947460416666667 17.8771L13.743889583333335 20.679389583333336" fill="none" stroke="#000000" stroke-linecap="round" stroke-linejoin="round" stroke-width="1.5"></path><path d="M6.869822916666667 23.98264375L10.525712500000001 25.4976625" fill="none" stroke="#000000" stroke-linecap="round" stroke-linejoin="round" stroke-width="1.5"></path><path d="M24.25 8.406666666666668C11.671929166666668 8.406666666666668 1.4752083333333335 18.6033875 1.4752083333333335 31.181458333333335V38.11291666666667C1.4752083333333335 39.20659166666667 2.36195 40.093333333333334 3.4556250000000004 40.093333333333334H45.044375C46.13805 40.093333333333334 47.02479166666667 39.20659166666667 47.02479166666667 38.11291666666667V31.181458333333335C47.02479166666667 18.6033875 36.828070833333335 8.406666666666668 24.25 8.406666666666668Z" fill="none" stroke="#000000" stroke-linecap="round" stroke-linejoin="round" stroke-width="1.5"></path></svg>