<svg viewBox="-0.75 -0.75 50 50" xmlns="http://www.w3.org/2000/svg" id="Multiple-Neutral-1--Streamline-Ultimate.svg" height="50" width="50"><desc>Multiple Neutral 1 Streamline Icon: https://streamlinehq.com</desc><path d="M35.364583333333336 44.458333333333336v-3.03125c0 -7.988354166666667 -5.860416666666667 -9.277645833333334 -11.385375000000002 -11.316666666666666 -1.8369375000000001 -0.6810208333333334 -1.5338125 -5.476458333333333 -0.7214375000000001 -6.3716875 1.9076666666666666 -2.099645833333333 3.528375 -4.561020833333334 3.528375 -10.508333333333335C26.786145833333336 7.230541666666667 22.871791666666667 4.041666666666667 18.1875 4.041666666666667S9.588854166666668 7.230541666666667 9.588854166666668 13.226354166666667c0 5.945291666666668 1.616666666666667 8.406666666666668 3.528375 10.508333333333335 0.8083333333333335 0.8952291666666667 1.1155000000000002 5.690666666666667 -0.7214375000000001 6.3716875C6.969854166666667 32.113062500000005 1.0104166666666667 33.37810416666667 1.0104166666666667 41.427083333333336V44.458333333333336Z" fill="none" stroke="#000000" stroke-linecap="round" stroke-linejoin="round" stroke-width="1.5"></path><path d="M40.41666666666667 44.458333333333336h7.072916666666667v-3.03125c0 -7.988354166666667 -5.860416666666667 -9.277645833333334 -11.385375000000002 -11.316666666666666 -1.8369375000000001 -0.6810208333333334 -1.5338125 -5.476458333333333 -0.7214375000000001 -6.3716875 1.9076666666666666 -2.099645833333333 3.528375 -4.561020833333334 3.528375 -10.508333333333335C38.911145833333336 7.230541666666667 34.996791666666674 4.041666666666667 30.312500000000004 4.041666666666667a9.764666666666667 9.764666666666667 0 0 0 -2.0208333333333335 0.20208333333333336" fill="none" stroke="#000000" stroke-linecap="round" stroke-linejoin="round" stroke-width="1.5"></path></svg>