<svg viewBox="-0.75 -0.75 50 50" xmlns="http://www.w3.org/2000/svg" id="Car-Dashboard-Gear-Automatic--Streamline-Ultimate.svg" height="50" width="50"><desc>Car Dashboard Gear Automatic Streamline Icon: https://streamlinehq.com</desc><path d="M3.800985416666667 8.222366666666668C3.800985416666667 13.327800000000002 9.3277625 16.518695833333336 13.749143750000002 13.965979166666667C15.801097916666667 12.781366666666667 17.065129166666665 10.59179375 17.065129166666665 8.222366666666668C17.065129166666665 3.1171354166666667 11.538554166666668 -0.07376041666666666 7.117172916666667 2.47895625C5.065016666666668 3.66356875 3.800985416666667 5.852939583333334 3.800985416666667 8.222366666666668Z" fill="none" stroke="#000000" stroke-linecap="round" stroke-linejoin="round" stroke-width="1.5"></path><path d="M10.433158333333333 14.854539583333334V30.329475000000002C10.433158333333333 30.939968750000002 10.928060416666668 31.43487083333334 11.538554166666668 31.434668750000004H22.591906250000005C23.2024 31.43487083333334 23.697302083333334 31.929570833333337 23.697302083333334 32.54006458333333V45.804208333333335C23.697302083333334 46.41470208333334 24.192204166666667 46.909604166666675 24.80269791666667 46.909604166666675H32.54006458333333" fill="none" stroke="#000000" stroke-linecap="round" stroke-linejoin="round" stroke-width="1.5"></path><path d="M36.961445833333336 15.959935416666669V4.906381250000001H41.935525000000005C44.06285625 4.906583333333334 45.392362500000004 7.209322916666667 44.32859583333334 9.051514583333335C43.83510833333334 9.906529166666667 42.92270208333334 10.433158333333333 41.935525000000005 10.433158333333333H36.961445833333336" fill="none" stroke="#000000" stroke-linecap="round" stroke-linejoin="round" stroke-width="1.5"></path><path d="M36.961445833333336 46.909604166666675V35.85625208333334H39.1722375C43.42669791666667 35.85645416666667 46.08571041666667 40.46213541666667 43.958379166666674 44.146518750000006C42.971000000000004 45.856345833333336 41.14659166666667 46.909604166666675 39.1722375 46.909604166666675Z" fill="none" stroke="#000000" stroke-linecap="round" stroke-linejoin="round" stroke-width="1.5"></path><path d="M36.961445833333336 31.434668750000004V20.381316666666667L43.593618750000005 31.434668750000004V20.381316666666667" fill="none" stroke="#000000" stroke-linecap="round" stroke-linejoin="round" stroke-width="1.5"></path></svg>