<svg xmlns="http://www.w3.org/2000/svg" xmlns:xlink="http://www.w3.org/1999/xlink" width="400" zoomAndPan="magnify" viewBox="0 0 300 62.999997" height="84" preserveAspectRatio="xMidYMid meet" version="1.0"><defs><g/><clipPath id="3f7371504b"><path d="M 0 0 L 49.375 0 L 49.375 62.488281 L 0 62.488281 Z M 0 0 " clip-rule="nonzero"/></clipPath></defs><g clip-path="url(#3f7371504b)"><path fill="#ff7326" d="M 24.734375 44.625 C 13.746094 44.625 4.839844 35.714844 4.839844 24.726562 C 4.839844 13.742188 13.746094 4.835938 24.734375 4.835938 C 35.71875 4.835938 44.628906 13.742188 44.628906 24.726562 C 44.628906 35.714844 35.71875 44.625 24.734375 44.625 Z M 24.734375 0.00390625 C 11.078125 0.00390625 0.00390625 11.070312 0.00390625 24.726562 C 0.00390625 46.640625 24.734375 62.71875 24.734375 62.71875 C 24.734375 62.71875 49.460938 46.640625 49.460938 24.726562 C 49.460938 11.070312 38.390625 0.00390625 24.734375 0.00390625 " fill-opacity="1" fill-rule="nonzero"/></g><path fill="#ff7326" d="M 33.164062 28.296875 C 32.339844 28.296875 30.628906 28.296875 30.628906 26.910156 C 30.628906 25.722656 31.976562 24.371094 33.164062 24.371094 C 34.351562 24.371094 35.320312 25.335938 35.320312 26.523438 C 35.320312 27.617188 34.492188 28.296875 33.164062 28.296875 Z M 28.992188 30 C 28.992188 30.136719 28.882812 30.25 28.742188 30.25 L 20.722656 30.25 C 20.585938 30.25 20.476562 30.136719 20.476562 30 L 20.476562 28.03125 C 20.476562 27.894531 20.585938 27.785156 20.722656 27.785156 L 28.742188 27.785156 C 28.882812 27.785156 28.992188 27.894531 28.992188 28.03125 Z M 16.304688 28.296875 C 14.976562 28.296875 14.152344 27.617188 14.152344 26.523438 C 14.152344 25.335938 15.113281 24.371094 16.304688 24.371094 C 17.488281 24.371094 18.839844 25.722656 18.839844 26.910156 C 18.839844 28.296875 17.125 28.296875 16.304688 28.296875 Z M 18 18.613281 C 18.3125 17.863281 19.273438 17.230469 20.085938 17.230469 L 29.382812 17.230469 C 30.199219 17.230469 31.152344 17.863281 31.472656 18.613281 L 32.753906 21.679688 C 30.726562 21.195312 28.050781 20.949219 24.734375 20.949219 C 21.417969 20.949219 18.746094 21.195312 16.710938 21.679688 Z M 37.503906 25.683594 C 37.503906 24.222656 36.578125 23.105469 34.742188 22.316406 L 36.101562 22.179688 C 36.242188 22.164062 36.367188 22.097656 36.457031 21.992188 C 36.546875 21.882812 36.589844 21.746094 36.574219 21.609375 L 36.503906 20.851562 C 36.476562 20.570312 36.234375 20.359375 35.945312 20.378906 L 33.089844 20.347656 L 32.230469 18.296875 C 31.78125 17.234375 30.53125 16.402344 29.382812 16.402344 L 20.085938 16.402344 C 18.933594 16.402344 17.683594 17.234375 17.238281 18.296875 L 16.378906 20.347656 L 13.519531 20.378906 C 13.230469 20.359375 12.988281 20.570312 12.964844 20.851562 L 12.894531 21.609375 C 12.878906 21.746094 12.921875 21.882812 13.011719 21.992188 C 13.101562 22.097656 13.226562 22.164062 13.363281 22.179688 L 14.722656 22.316406 C 12.886719 23.105469 11.960938 24.222656 11.960938 25.683594 L 11.960938 25.933594 C 11.960938 27.242188 11.953125 28.59375 13.011719 29.652344 C 13.128906 29.773438 13.265625 29.890625 13.410156 30 L 13.410156 32.582031 C 13.410156 33 13.757812 33.347656 14.175781 33.347656 L 17.671875 33.347656 C 18.089844 33.347656 18.433594 33 18.433594 32.582031 L 18.433594 31.554688 C 20.132812 31.769531 22.214844 31.867188 24.734375 31.867188 C 27.25 31.867188 29.335938 31.769531 31.035156 31.554688 L 31.035156 32.582031 C 31.035156 33 31.375 33.347656 31.796875 33.347656 L 35.292969 33.347656 C 35.714844 33.347656 36.054688 33 36.054688 32.582031 L 36.054688 30 C 36.199219 29.890625 36.335938 29.773438 36.457031 29.652344 C 37.515625 28.59375 37.511719 27.242188 37.503906 25.933594 L 37.503906 25.683594 " fill-opacity="1" fill-rule="nonzero"/><g fill="#ffffff" fill-opacity="1"><g transform="translate(64.21926, 46.566955)"><g><path d="M 17.078125 -11.421875 L 17.078125 -16.140625 L 33.8125 -16.140625 L 33.8125 -13.796875 C 33.8125 -11.816406 33.40625 -9.96875 32.59375 -8.25 C 31.78125 -6.53125 30.65625 -5 29.21875 -3.65625 C 27.78125 -2.320312 26.109375 -1.28125 24.203125 -0.53125 C 22.304688 0.207031 20.25 0.578125 18.03125 0.578125 C 15.78125 0.578125 13.679688 0.160156 11.734375 -0.671875 C 9.785156 -1.515625 8.0625 -2.679688 6.5625 -4.171875 C 5.0625 -5.671875 3.890625 -7.394531 3.046875 -9.34375 C 2.210938 -11.289062 1.796875 -13.390625 1.796875 -15.640625 C 1.796875 -17.890625 2.210938 -19.988281 3.046875 -21.9375 C 3.890625 -23.882812 5.0625 -25.609375 6.5625 -27.109375 C 8.0625 -28.609375 9.785156 -29.773438 11.734375 -30.609375 C 13.679688 -31.453125 15.78125 -31.875 18.03125 -31.875 C 20.84375 -31.875 23.425781 -31.210938 25.78125 -29.890625 C 28.132812 -28.578125 30.03125 -26.835938 31.46875 -24.671875 L 27.515625 -21.671875 C 26.523438 -23.222656 25.195312 -24.476562 23.53125 -25.4375 C 21.863281 -26.394531 20.03125 -26.875 18.03125 -26.875 C 15.957031 -26.875 14.070312 -26.375 12.375 -25.375 C 10.6875 -24.375 9.332031 -23.019531 8.3125 -21.3125 C 7.289062 -19.601562 6.78125 -17.710938 6.78125 -15.640625 C 6.78125 -13.578125 7.289062 -11.695312 8.3125 -10 C 9.332031 -8.3125 10.6875 -6.957031 12.375 -5.9375 C 14.070312 -4.914062 15.957031 -4.40625 18.03125 -4.40625 C 20.601562 -4.40625 22.816406 -5.054688 24.671875 -6.359375 C 26.535156 -7.660156 27.765625 -9.347656 28.359375 -11.421875 Z M 17.078125 -11.421875 "/></g></g></g><g fill="#ffffff" fill-opacity="1"><g transform="translate(99.720319, 46.566955)"><g><path d="M 8.359375 -13.578125 L 8.359375 -4.71875 L 21.984375 -4.71875 L 21.984375 0 L 3.375 0 L 3.375 -31.46875 L 21.75 -31.46875 L 21.75 -26.75 L 8.359375 -26.75 L 8.359375 -18.296875 L 20.640625 -18.296875 L 20.640625 -13.578125 Z M 8.359375 -13.578125 "/></g></g></g><g fill="#ffffff" fill-opacity="1"><g transform="translate(123.402673, 46.566955)"><g><path d="M 29.40625 0 L 24.046875 0 L 21.484375 -6.78125 L 8.40625 -6.78125 L 5.84375 0 L 0.453125 0 L 12.234375 -31.46875 L 17.625 -31.46875 Z M 14.96875 -24.3125 L 10.15625 -11.515625 L 19.734375 -11.515625 Z M 14.96875 -24.3125 "/></g></g></g><g fill="#ffffff" fill-opacity="1"><g transform="translate(153.241538, 46.566955)"><g><path d="M 27.375 0 L 21.671875 0 L 15.28125 -11.28125 L 8.359375 -11.28125 L 8.359375 0 L 3.375 0 L 3.375 -31.46875 L 15.875 -31.46875 C 17.726562 -31.46875 19.414062 -31.015625 20.9375 -30.109375 C 22.46875 -29.210938 23.691406 -28 24.609375 -26.46875 C 25.523438 -24.945312 25.984375 -23.253906 25.984375 -21.390625 C 25.984375 -19.421875 25.460938 -17.632812 24.421875 -16.03125 C 23.390625 -14.425781 22.050781 -13.203125 20.40625 -12.359375 Z M 15.875 -26.703125 L 8.359375 -26.703125 L 8.359375 -16.046875 L 15.875 -16.046875 C 16.863281 -16.046875 17.757812 -16.285156 18.5625 -16.765625 C 19.375 -17.242188 20.019531 -17.890625 20.5 -18.703125 C 20.976562 -19.515625 21.21875 -20.410156 21.21875 -21.390625 C 21.21875 -22.378906 20.976562 -23.269531 20.5 -24.0625 C 20.019531 -24.863281 19.375 -25.503906 18.5625 -25.984375 C 17.757812 -26.460938 16.863281 -26.703125 15.875 -26.703125 Z M 15.875 -26.703125 "/></g></g></g><g fill="#ffffff" fill-opacity="1"><g transform="translate(181.507575, 46.566955)"><g><path d="M 13.625 0.578125 C 10.507812 0.578125 7.921875 -0.125 5.859375 -1.53125 C 3.804688 -2.9375 2.378906 -4.78125 1.578125 -7.0625 L 5.84375 -9.53125 C 6.445312 -7.9375 7.390625 -6.664062 8.671875 -5.71875 C 9.960938 -4.78125 11.65625 -4.3125 13.75 -4.3125 C 15.132812 -4.3125 16.253906 -4.539062 17.109375 -5 C 17.960938 -5.46875 18.597656 -6.046875 19.015625 -6.734375 C 19.429688 -7.429688 19.640625 -8.140625 19.640625 -8.859375 C 19.640625 -10.085938 19.046875 -11.0625 17.859375 -11.78125 C 16.679688 -12.5 14.894531 -13.203125 12.5 -13.890625 C 10.851562 -14.398438 9.296875 -14.988281 7.828125 -15.65625 C 6.359375 -16.332031 5.164062 -17.25 4.25 -18.40625 C 3.332031 -19.5625 2.875 -21.097656 2.875 -23.015625 C 2.875 -24.898438 3.335938 -26.515625 4.265625 -27.859375 C 5.203125 -29.210938 6.429688 -30.25 7.953125 -30.96875 C 9.484375 -31.6875 11.148438 -32.046875 12.953125 -32.046875 C 15.523438 -32.046875 17.734375 -31.414062 19.578125 -30.15625 C 21.421875 -28.90625 22.804688 -27.242188 23.734375 -25.171875 L 19.46875 -22.75 C 18.863281 -24.15625 18.019531 -25.234375 16.9375 -25.984375 C 15.863281 -26.734375 14.535156 -27.109375 12.953125 -27.109375 C 11.390625 -27.109375 10.148438 -26.695312 9.234375 -25.875 C 8.316406 -25.050781 7.859375 -24.113281 7.859375 -23.0625 C 7.859375 -21.769531 8.390625 -20.816406 9.453125 -20.203125 C 10.523438 -19.585938 12.171875 -18.921875 14.390625 -18.203125 C 15.671875 -17.816406 16.925781 -17.375 18.15625 -16.875 C 19.382812 -16.382812 20.484375 -15.78125 21.453125 -15.0625 C 22.429688 -14.34375 23.207031 -13.460938 23.78125 -12.421875 C 24.351562 -11.390625 24.640625 -10.113281 24.640625 -8.59375 C 24.640625 -6.726562 24.164062 -5.101562 23.21875 -3.71875 C 22.269531 -2.34375 20.960938 -1.28125 19.296875 -0.53125 C 17.640625 0.207031 15.75 0.578125 13.625 0.578125 Z M 13.625 0.578125 "/></g></g></g><g fill="#ffffff" fill-opacity="1"><g transform="translate(207.616581, 46.566955)"><g><path d="M 23.828125 -18.46875 L 23.828125 -31.46875 L 28.8125 -31.46875 L 28.8125 0 L 23.828125 0 L 23.828125 -13.75 L 8.359375 -13.75 L 8.359375 0 L 3.375 0 L 3.375 -31.46875 L 8.359375 -31.46875 L 8.359375 -18.46875 Z M 23.828125 -18.46875 "/></g></g></g><g fill="#ffffff" fill-opacity="1"><g transform="translate(239.792232, 46.566955)"><g><path d="M 3.375 0 L 3.375 -31.46875 L 8.359375 -31.46875 L 8.359375 0 Z M 3.375 0 "/></g></g></g><g fill="#ffffff" fill-opacity="1"><g transform="translate(251.52106, 46.566955)"><g><path d="M 21.75 -31.46875 L 21.75 -26.75 L 8.359375 -26.75 L 8.359375 -17.890625 L 21.21875 -17.890625 L 21.21875 -13.171875 L 8.359375 -13.171875 L 8.359375 0 L 3.375 0 L 3.375 -31.46875 Z M 21.75 -31.46875 "/></g></g></g><g fill="#ffffff" fill-opacity="1"><g transform="translate(275.113537, 46.566955)"><g><path d="M 23.734375 -31.46875 L 23.734375 -26.75 L 14.75 -26.75 L 14.75 0 L 9.75 0 L 9.75 -26.75 L 0.8125 -26.75 L 0.8125 -31.46875 Z M 23.734375 -31.46875 "/></g></g></g></svg>